<?xml version="1.0" encoding="UTF-8"?>
<svg version="1.1" xmlns="http://www.w3.org/2000/svg" width="356" height="200">
<path d="M0 0 C2 2 2 2 2.4375 4.8125 C1.8613528 9.0101439 0.23542571 10.38084585 -3 13 C-3.66 13 -4.32 13 -5 13 C-4.26284313 16.16578502 -4.26284313 16.16578502 -1.5625 17.8125 C1.6561637 20.56013974 2.02852768 21.86901449 3 26 C3.26605655 30.04474269 3.2362817 34.07318051 3.1875 38.125 C3.1767041 39.27194336 3.1659082 40.41888672 3.15478516 41.60058594 C3.12715334 43.94181348 3.09331578 46.28297614 3.05322266 48.62402344 C3.00423201 51.73155856 2.99050086 54.83746909 2.98046875 57.9453125 C2.94836695 59.71359976 2.91339456 61.48183818 2.875 63.25 C2.87781982 64.05195801 2.88063965 64.85391602 2.88354492 65.68017578 C2.73055318 70.08993768 2.10484597 72.36319459 -1.0546875 75.546875 C-2.02664062 76.35640625 -2.99859375 77.1659375 -4 78 C-2.88345951 80.60526114 -2.02918783 81.9758158 0.1875 83.8125 C2 86 2 86 1.75 89.75 C1.37875 91.35875 1.37875 91.35875 1 93 C-1.17578125 93.7421875 -1.17578125 93.7421875 -4 94 C-6.54296875 92.4453125 -6.54296875 92.4453125 -9.1875 90.125 C-10.1465625 89.29484375 -11.105625 88.4646875 -12.09375 87.609375 C-13.0528125 86.74828125 -14.011875 85.8871875 -15 85 C-15.8765625 84.22140625 -16.753125 83.4428125 -17.65625 82.640625 C-20.11558797 80.43936571 -22.55905999 78.22162095 -25 76 C-29.47963324 71.9515614 -33.87363012 68.20398118 -39 65 C-39.03738281 65.88042969 -39.07476562 66.76085937 -39.11328125 67.66796875 C-39.17902344 68.82941406 -39.24476563 69.99085937 -39.3125 71.1875 C-39.37050781 72.33605469 -39.42851562 73.48460938 -39.48828125 74.66796875 C-40.20744661 79.35077834 -42.28045225 83.0243618 -46 86 C-49.4887434 87.17208681 -52.85091658 87.13965943 -56.50927734 87.16113281 C-57.47593071 87.16858017 -57.47593071 87.16858017 -58.46211243 87.17617798 C-60.58673178 87.19074174 -62.7112765 87.19759154 -64.8359375 87.203125 C-66.31800334 87.20888079 -67.80006918 87.21463847 -69.28213501 87.22039795 C-72.38731227 87.23089118 -75.49246377 87.23674495 -78.59765625 87.24023438 C-82.56769259 87.24571855 -86.53738588 87.26975173 -90.50731468 87.29820633 C-93.56831851 87.3168703 -96.62924026 87.32204028 -99.69029617 87.32357025 C-101.15346784 87.32658835 -102.61663835 87.33458834 -104.07975388 87.34775543 C-106.13074299 87.36489711 -108.18090103 87.3629167 -110.23193359 87.35644531 C-111.97922256 87.36191376 -111.97922256 87.36191376 -113.7618103 87.36749268 C-118.57093674 86.82171899 -121.77841457 85.51285131 -124.8497467 81.70921326 C-126.21042722 78.5043768 -126.38708211 76.13200935 -126.40405273 72.65258789 C-126.41673691 71.39100357 -126.42942108 70.12941925 -126.44248962 68.8296051 C-126.44043797 67.46062048 -126.43744976 66.09163698 -126.43359375 64.72265625 C-126.43815841 63.30927785 -126.44346484 61.89590167 -126.44947815 60.48252869 C-126.45839838 57.52447476 -126.45599895 54.56669097 -126.44604492 51.60864258 C-126.43455881 47.82788226 -126.45476538 44.04805645 -126.48396206 40.26741886 C-126.50235624 37.34962595 -126.50202526 34.43205565 -126.49632454 31.51421928 C-126.4961717 30.12083056 -126.50218494 28.72742638 -126.51461601 27.33409309 C-126.60832839 15.10837615 -126.60832839 15.10837615 -124.21899414 11.22436523 C-117.79299123 4.78280813 -108.12599526 5.88482152 -99.62179565 5.83540344 C-98.46527496 5.83429062 -97.30875427 5.8331778 -96.1171875 5.83203125 C-94.90354523 5.82870285 -93.68990295 5.82537445 -92.43948364 5.82194519 C-89.88625465 5.81690456 -87.33301912 5.81453597 -84.77978516 5.81469727 C-80.88042408 5.81250305 -76.98134267 5.79429548 -73.08203125 5.77539062 C-70.59375096 5.77245763 -68.10546934 5.77047221 -65.6171875 5.76953125 C-64.45661835 5.76234573 -63.29604919 5.75516022 -62.10031128 5.74775696 C-48.82581616 5.78517112 -48.82581616 5.78517112 -43.6875 9.8125 C-40.21749301 14.31065721 -39.76183315 18.21074084 -39.875 23.8125 C-39.89304687 24.97394531 -39.91109375 26.13539062 -39.9296875 27.33203125 C-39.95289063 28.21246094 -39.97609375 29.09289062 -40 30 C-39.58492188 29.63390625 -39.16984375 29.2678125 -38.7421875 28.890625 C-33.58359419 24.35796979 -28.37450421 19.88617731 -23.15600586 15.42285156 C-19.89880733 12.634862 -16.65549436 9.83330054 -13.4375 7 C-12.83164063 6.47277344 -12.22578125 5.94554687 -11.6015625 5.40234375 C-10.15786064 4.13822431 -8.73388425 2.85166246 -7.3125 1.5625 C-4.59720606 -0.27215807 -3.21315485 -0.52105214 0 0 Z " fill="#4FAEFA" transform="translate(240,53)"/>
<path d="M0 0 C1.21364227 -0.0033284 2.42728455 -0.0066568 3.67770386 -0.01008606 C6.23093285 -0.01512669 8.78416838 -0.01749528 11.33740234 -0.01733398 C15.23676342 -0.0195282 19.13584483 -0.03773577 23.03515625 -0.05664062 C25.52343654 -0.05957362 28.01171816 -0.06155904 30.5 -0.0625 C31.66056915 -0.06968552 32.82113831 -0.07687103 34.01687622 -0.08427429 C47.29137134 -0.04686013 47.29137134 -0.04686013 52.4296875 3.98046875 C55.89969449 8.47862596 56.35535435 12.37870959 56.2421875 17.98046875 C56.22414063 19.14191406 56.20609375 20.30335937 56.1875 21.5 C56.16429687 22.38042969 56.14109375 23.26085937 56.1171875 24.16796875 C56.65988281 23.66265625 57.20257813 23.15734375 57.76171875 22.63671875 C58.47714844 21.98703125 59.19257813 21.33734375 59.9296875 20.66796875 C60.63738281 20.01828125 61.34507812 19.36859375 62.07421875 18.69921875 C64.1171875 17.16796875 64.1171875 17.16796875 67.1171875 17.16796875 C66.4984375 17.72484375 65.8796875 18.28171875 65.2421875 18.85546875 C63.05612371 21.23442053 62.12933051 23.13153971 61.1171875 26.16796875 C55.3671875 26.29296875 55.3671875 26.29296875 53.1171875 25.16796875 C52.73828125 22.33203125 52.73828125 22.33203125 52.5546875 18.79296875 C52.29416251 13.89541401 52.29416251 13.89541401 51.1171875 9.16796875 C50.4571875 9.16796875 49.7971875 9.16796875 49.1171875 9.16796875 C48.1271875 7.18796875 48.1271875 7.18796875 47.1171875 5.16796875 C38.59833634 5.02883009 30.07996132 4.92227962 21.5602541 4.85709572 C17.60396958 4.82580718 13.64846346 4.78338284 9.69262695 4.71533203 C5.87353581 4.6500462 2.05519233 4.61424406 -1.76441383 4.59870529 C-3.22013939 4.58763504 -4.67582487 4.56601598 -6.13123131 4.53358841 C-13.83896379 4.02515521 -13.83896379 4.02515521 -20.80996704 6.50848389 C-22.31876506 8.29312296 -22.31876506 8.29312296 -23.8828125 11.16796875 C-24.8728125 11.49796875 -25.8628125 11.82796875 -26.8828125 12.16796875 C-26.8828125 32.62796875 -26.8828125 53.08796875 -26.8828125 74.16796875 C-24.9028125 74.82796875 -22.9228125 75.48796875 -20.8828125 76.16796875 C-20.5528125 76.49796875 -20.2228125 76.82796875 -19.8828125 77.16796875 C-17.91033916 77.28640137 -15.93366629 77.33537238 -13.95776367 77.35742188 C-12.05525093 77.38249817 -12.05525093 77.38249817 -10.11430359 77.40808105 C-9.43202887 77.41476303 -8.74975414 77.42144501 -8.04680443 77.42832947 C-5.91583122 77.44931674 -3.78501194 77.47634541 -1.65412903 77.50500488 C2.87375075 77.56479645 7.40170251 77.6168612 11.9296875 77.66796875 C17.16551773 77.72721612 22.40127328 77.78961594 27.63696861 77.85984802 C29.7352345 77.88638382 31.83350792 77.90722671 33.93183899 77.92785645 C35.2096373 77.94457397 36.48743561 77.9612915 37.80395508 77.97851562 C39.49153679 77.99730774 39.49153679 77.99730774 41.21321106 78.01647949 C43.68722823 78.14553943 45.75833932 78.45071641 48.1171875 79.16796875 C48.1171875 77.51796875 48.1171875 75.86796875 48.1171875 74.16796875 C48.7771875 74.16796875 49.4371875 74.16796875 50.1171875 74.16796875 C52.06175678 70.03378284 52.48746771 66.39797175 52.7421875 61.85546875 C52.81695312 60.60121094 52.89171875 59.34695312 52.96875 58.0546875 C53.04222656 56.62576172 53.04222656 56.62576172 53.1171875 55.16796875 C57.1171875 55.16796875 57.1171875 55.16796875 58.6015625 56.48046875 C59.7734375 58.04296875 60.9453125 59.60546875 62.1171875 61.16796875 C60.4671875 60.50796875 58.8171875 59.84796875 57.1171875 59.16796875 C57.07980469 60.04839844 57.04242188 60.92882812 57.00390625 61.8359375 C56.93816406 62.99738281 56.87242187 64.15882812 56.8046875 65.35546875 C56.74667969 66.50402344 56.68867188 67.65257813 56.62890625 68.8359375 C55.90974089 73.51874709 53.83673525 77.19233055 50.1171875 80.16796875 C46.6284441 81.34005556 43.26627092 81.30762818 39.60791016 81.32910156 C38.64125679 81.33654892 38.64125679 81.33654892 37.65507507 81.34414673 C35.53045572 81.35871049 33.405911 81.36556029 31.28125 81.37109375 C29.79918416 81.37684954 28.31711832 81.38260722 26.83505249 81.3883667 C23.72987523 81.39885993 20.62472373 81.4047137 17.51953125 81.40820312 C13.54949491 81.4136873 9.57980162 81.43772048 5.60987282 81.46617508 C2.54886899 81.48483905 -0.51205276 81.49000903 -3.57310867 81.491539 C-5.03628034 81.4945571 -6.49945085 81.50255709 -7.96256638 81.51572418 C-10.01355549 81.53286586 -12.06371353 81.53088545 -14.11474609 81.52441406 C-15.86203506 81.52988251 -15.86203506 81.52988251 -17.6446228 81.53546143 C-22.45374924 80.98968774 -25.66122707 79.68082006 -28.7325592 75.87718201 C-30.09323972 72.67234555 -30.26989461 70.2999781 -30.28686523 66.82055664 C-30.29954941 65.55897232 -30.31223358 64.297388 -30.32530212 62.99757385 C-30.32325047 61.62858923 -30.32026226 60.25960573 -30.31640625 58.890625 C-30.32097091 57.4772466 -30.32627734 56.06387042 -30.33229065 54.65049744 C-30.34121088 51.69244351 -30.33881145 48.73465972 -30.32885742 45.77661133 C-30.31737131 41.99585101 -30.33757788 38.2160252 -30.36677456 34.43538761 C-30.38516874 31.5175947 -30.38483776 28.6000244 -30.37913704 25.68218803 C-30.3789842 24.28879931 -30.38499744 22.89539513 -30.39742851 21.50206184 C-30.49114089 9.2763449 -30.49114089 9.2763449 -28.10180664 5.39233398 C-21.03334812 -1.6932338 -9.28746758 0.00893656 0 0 Z " fill="#77BBEB" transform="translate(143.8828125,58.83203125)"/>
<path d="M0 0 C0.99 0.33 1.98 0.66 3 1 C3 1.66 3 2.32 3 3 C3.66 3 4.32 3 5 3 C5 3.66 5 4.32 5 5 C5.66 5 6.32 5 7 5 C7 5.66 7 6.32 7 7 C7.5775 7.061875 8.155 7.12375 8.75 7.1875 C11.91500782 8.33041949 12.92423528 10.34763397 15 13 C19.63411602 17.50349404 19.63411602 17.50349404 25 21 C25 21.66 25 22.32 25 23 C25.66 23 26.32 23 27 23 C27.33 23.66 27.66 24.32 28 25 C28.78375 25.45375 29.5675 25.9075 30.375 26.375 C33.07408419 28.04586164 34.1289375 29.50525 36 32 C37.64142963 33.0409066 39.30712215 34.04504326 41 35 C41.66 35.66 42.32 36.32 43 37 C42.625 40.625 42.625 40.625 42 44 C39.82421875 44.7421875 39.82421875 44.7421875 37 45 C34.45703125 43.4453125 34.45703125 43.4453125 31.8125 41.125 C30.8534375 40.29484375 29.894375 39.4646875 28.90625 38.609375 C27.46765625 37.31773437 27.46765625 37.31773437 26 36 C24.68515625 34.83210938 24.68515625 34.83210938 23.34375 33.640625 C21.66836761 32.14105435 20.00024959 30.63332427 18.33984375 29.1171875 C16.21953724 27.19864639 14.05773794 25.34660481 11.875 23.5 C10.57468261 22.3429829 9.28326575 21.17590089 8 20 C7.24976563 19.32453125 6.49953125 18.6490625 5.7265625 17.953125 C2.51922948 14.77955338 0.25286796 12.52708539 -0.5 7.98046875 C-0.5 5.27149051 -0.3610837 2.68305247 0 0 Z " fill="#3F81EE" transform="translate(199,102)"/>
<path d="M0 0 C2 2 2 2 2.4375 4.8125 C1.8613528 9.0101439 0.23542571 10.38084585 -3 13 C-3.66 13 -4.32 13 -5 13 C-4.26284313 16.16578502 -4.26284313 16.16578502 -1.5625 17.8125 C1.66390832 20.56675101 2.03033188 21.8544464 3 26 C3.26471294 30.1489317 3.23491965 34.28176076 3.1875 38.4375 C3.18105469 39.5929834 3.17460937 40.7484668 3.16796875 41.93896484 C3.09282005 50.32391571 2.77164867 58.64965898 2 67 C1.67 67 1.34 67 1 67 C0.67 51.82 0.34 36.64 0 21 C-1.65 20.67 -3.3 20.34 -5 20 C-5 19.34 -5 18.68 -5 18 C-6.65 17.34 -8.3 16.68 -10 16 C-10.66 17.32 -11.32 18.64 -12 20 C-12.66 20 -13.32 20 -14 20 C-14.33 20.66 -14.66 21.32 -15 22 C-15 21.01 -15 20.02 -15 19 C-15.99 18.34 -16.98 17.68 -18 17 C-17.360625 16.71125 -16.72125 16.4225 -16.0625 16.125 C-13.84793921 15.17176549 -13.84793921 15.17176549 -13 13 C-13.66 12.67 -14.32 12.34 -15 12 C-15 12.66 -15 13.32 -15 14 C-17.09697236 15.86397543 -18.94302864 16.97776727 -21.5625 18 C-24.03064201 19.01257108 -25.27589183 20.00366422 -27 22 C-27.66 21.67 -28.32 21.34 -29 21 C-16.91979878 9.96349263 -16.91979878 9.96349263 -11.70703125 5.47265625 C-10.22239549 4.19186064 -8.76487244 2.87976803 -7.3125 1.5625 C-4.59720606 -0.27215807 -3.21315485 -0.52105214 0 0 Z " fill="#6D9DE5" transform="translate(240,53)"/>
<path d="M0 0 C0.99 0.33 1.98 0.66 3 1 C2.01 2.32 1.02 3.64 0 5 C0.33 5.66 0.66 6.32 1 7 C0.0625 9.125 0.0625 9.125 -1 11 C-1.66 11 -2.32 11 -3 11 C-3 11.66 -3 12.32 -3 13 C-3.66 13 -4.32 13 -5 13 C-5 13.66 -5 14.32 -5 15 C-5.66 15 -6.32 15 -7 15 C-7 15.66 -7 16.32 -7 17 C-10.46153846 20 -10.46153846 20 -13 20 C-13 20.66 -13 21.32 -13 22 C-14.86328125 23.62109375 -14.86328125 23.62109375 -17.3125 25.4375 C-20.07552515 27.49753324 -22.57372559 29.55879467 -25 32 C-25.33 32 -25.66 32 -26 32 C-26.33 28.37 -26.66 24.74 -27 21 C-25.88625 20.773125 -24.7725 20.54625 -23.625 20.3125 C-22.42875 19.879375 -21.2325 19.44625 -20 19 C-19.32697318 17.33589149 -18.66127349 15.66881383 -18 14 C-15.79296875 11.61328125 -15.79296875 11.61328125 -13.1875 9.3125 C-12.33542969 8.54550781 -11.48335937 7.77851562 -10.60546875 6.98828125 C-7.23949323 4.41964326 -3.97672584 3.32557528 0 2 C0 1.34 0 0.68 0 0 Z " fill="#4081EB" transform="translate(225,65)"/>
<path d="M0 0 C3.57997573 0.87080491 4.79154265 1.6765317 6.8125 4.8125 C8.87660307 10.2626598 8.23240585 16.27592998 8 22 C8.54269531 21.4946875 9.08539063 20.989375 9.64453125 20.46875 C10.35996094 19.8190625 11.07539063 19.169375 11.8125 18.5 C12.52019531 17.8503125 13.22789062 17.200625 13.95703125 16.53125 C16 15 16 15 19 15 C18.38125 15.556875 17.7625 16.11375 17.125 16.6875 C14.93893621 19.06645178 14.01214301 20.96357096 13 24 C7.25 24.125 7.25 24.125 5 23 C4.62109375 20.1640625 4.62109375 20.1640625 4.4375 16.625 C4.17697501 11.72744526 4.17697501 11.72744526 3 7 C2.34 7 1.68 7 1 7 C0.67 4.69 0.34 2.38 0 0 Z " fill="#62ABDB" transform="translate(192,61)"/>
<path d="M0 0 C3.7952131 1.49097658 5.61042731 3.75700849 8 7 C5.525 6.01 5.525 6.01 3 5 C2.96261719 5.88042969 2.92523438 6.76085937 2.88671875 7.66796875 C2.82097656 8.82941406 2.75523437 9.99085937 2.6875 11.1875 C2.62949219 12.33605469 2.57148438 13.48460938 2.51171875 14.66796875 C1.85610852 18.93694225 0.14397865 21.50785393 -2.4375 24.875 C-4 26 -4 26 -6.1875 25.6875 C-6.785625 25.460625 -7.38375 25.23375 -8 25 C-7.34 25 -6.68 25 -6 25 C-6 23.35 -6 21.7 -6 20 C-5.34 20 -4.68 20 -4 20 C-2.05489883 15.87355055 -1.66050748 12.28606713 -1.4375 7.75 C-1.09945355 1.09945355 -1.09945355 1.09945355 0 0 Z " fill="#63ADDF" transform="translate(198,113)"/>
<path d="M0 0 C8.77832952 8.54107737 8.77832952 8.54107737 9.12939453 15.6027832 C9.13052246 16.57562256 9.13165039 17.54846191 9.1328125 18.55078125 C9.13571289 20.17814209 9.13571289 20.17814209 9.13867188 21.83837891 C9.13416016 22.98483887 9.12964844 24.13129883 9.125 25.3125 C9.12306641 26.47700684 9.12113281 27.64151367 9.11914062 28.84130859 C9.07700289 37.26534419 8.77520878 45.61113351 8 54 C7.67 54 7.34 54 7 54 C6.67 38.82 6.34 23.64 6 8 C4.35 7.67 2.7 7.34 1 7 C1 6.34 1 5.68 1 5 C0.01 4.67 -0.98 4.34 -2 4 C-1.34 2.68 -0.68 1.36 0 0 Z " fill="#A8D0EC" transform="translate(234,66)"/>
<path d="M0 0 C2.9375 0.75 2.9375 0.75 6 2 C6.875 4.125 6.875 4.125 7 6 C8.60875 6.3403125 8.60875 6.3403125 10.25 6.6875 C14.4373664 8.15307824 15.47888412 9.48844573 18 13 C18.99 13.33 19.98 13.66 21 14 C22.125 16.4375 22.125 16.4375 23 19 C23.33 19.66 23.66 20.32 24 21 C18.89714839 20.62940184 16.08954404 17.82551438 12.5625 14.4375 C11.98991455 13.89899414 11.4173291 13.36048828 10.82739258 12.80566406 C6.69719166 8.85057659 3.19984506 4.75405552 0 0 Z " fill="#4C7DD6" transform="translate(200,113)"/>
<path d="M0 0 C7.47508306 3.48837209 7.47508306 3.48837209 9 6 C8.6875 9.6875 8.6875 9.6875 8 13 C5.76953125 13.703125 5.76953125 13.703125 3 14 C0.76171875 12.671875 0.76171875 12.671875 -1.3125 10.75 C-2.00988281 10.12609375 -2.70726562 9.5021875 -3.42578125 8.859375 C-5 7 -5 7 -5 4 C-4.01 4 -3.02 4 -2 4 C-1.67 5.65 -1.34 7.3 -1 9 C0.65 8.34 2.3 7.68 4 7 C4 6.01 4 5.02 4 4 C2.68 3.34 1.36 2.68 0 2 C0 1.34 0 0.68 0 0 Z " fill="#6B93D7" transform="translate(233,133)"/>
<path d="M0 0 C0.33 0 0.66 0 1 0 C1.01030746 0.74058151 1.02061493 1.48116302 1.03123474 2.2441864 C1.12932451 9.23287308 1.23185497 16.22147732 1.33933926 23.21002483 C1.39443855 26.80266543 1.44783721 30.39531434 1.49731445 33.98803711 C1.54515039 37.45699185 1.5974991 40.92585214 1.65294075 44.39469337 C1.68315603 46.35827285 1.70873098 48.32192195 1.73423767 50.28556824 C1.75418289 51.4864357 1.77412811 52.68730316 1.79467773 53.92456055 C1.81022202 54.97935104 1.8257663 56.03414154 1.84178162 57.12089539 C1.99139483 59.84341155 2.39029702 62.34640658 3 65 C3.99 65.33 4.98 65.66 6 66 C6 67.32 6 68.64 6 70 C3.68192471 69.07276988 2.28144403 68.42332929 0.88137817 66.31744385 C-0.25633875 63.325998 -0.23965347 60.87198095 -0.22705078 57.67089844 C-0.22689972 56.38987244 -0.22674866 55.10884644 -0.22659302 53.78900146 C-0.21638051 52.39579106 -0.20594853 51.00258224 -0.1953125 49.609375 C-0.19158064 48.18019814 -0.18873448 46.75101872 -0.18673706 45.32183838 C-0.17911419 41.56694429 -0.15947739 37.81220581 -0.1373291 34.05737305 C-0.11684159 30.22316594 -0.10772914 26.38893361 -0.09765625 22.5546875 C-0.07623012 15.03638752 -0.04211056 7.5182156 0 0 Z " fill="#86BFE6" transform="translate(114,68)"/>
<path d="M0 0 C2.72673324 1.40734619 2.9506853 3.18052944 3.9375 6 C4.5975 6.33 5.2575 6.66 5.9375 7 C5.9375 7.99 5.9375 8.98 5.9375 10 C4.2875 10.66 2.6375 11.32 0.9375 12 C0.2775 10.35 -0.3825 8.7 -1.0625 7 C-1.0625 7.66 -1.0625 8.32 -1.0625 9 C-4.30458567 8.64950425 -5.67777704 8.43778819 -7.875 5.9375 C-8.266875 5.298125 -8.65875 4.65875 -9.0625 4 C-8.464375 3.896875 -7.86625 3.79375 -7.25 3.6875 C-4.97009282 3.17030653 -4.97009282 3.17030653 -3.5625 1.375 C-2.0625 0 -2.0625 0 0 0 Z " fill="#568BE0" transform="translate(231.0625,130)"/>
<path d="M0 0 C1 1 1 1 1.0625 3.5625 C1.041875 4.366875 1.02125 5.17125 1 6 C-0.98 6.33 -2.96 6.66 -5 7 C-5 7.66 -5 8.32 -5 9 C-6.9375 9.5625 -6.9375 9.5625 -9 10 C-10 9 -10 9 -10.3125 6.6875 C-10 4 -10 4 -8.375 1.6875 C-5.3770462 -0.44262507 -3.60277895 -0.40030877 0 0 Z " fill="#427FED" transform="translate(240,55)"/>
<path d="M0 0 C2.42130331 3.63195496 2.21022785 5.38349348 2.125 9.6875 C2.10695312 10.86699219 2.08890625 12.04648438 2.0703125 13.26171875 C2.03550781 14.61716797 2.03550781 14.61716797 2 16 C2.54269531 15.4946875 3.08539063 14.989375 3.64453125 14.46875 C4.35996094 13.8190625 5.07539063 13.169375 5.8125 12.5 C6.52019531 11.8503125 7.22789062 11.200625 7.95703125 10.53125 C10 9 10 9 13 9 C12.071875 9.8353125 12.071875 9.8353125 11.125 10.6875 C8.93893621 13.06645178 8.01214301 14.96357096 7 18 C5.02 18 3.04 18 1 18 C0.67 12.06 0.34 6.12 0 0 Z " fill="#ABCCED" transform="translate(198,67)"/>
<path d="M0 0 C0.99 0.33 1.98 0.66 3 1 C2.63298988 4.30309104 1.86892198 5.12483621 -0.625 7.5 C-1.40875 8.325 -2.1925 9.15 -3 10 C-2.95502158 12.27523089 -2.95502158 12.27523089 -2 14 C-3.32 13.34 -4.64 12.68 -6 12 C-6 10.02 -6 8.04 -6 6 C-4.68 6 -3.36 6 -2 6 C-2 4.35 -2 2.7 -2 1 C-1.34 0.67 -0.68 0.34 0 0 Z " fill="#80BCEB" transform="translate(239,121)"/>
<path d="M0 0 C0.928125 0.0825 1.85625 0.165 2.8125 0.25 C0.47403846 6.89615385 0.47403846 6.89615385 -2.875 8.6875 C-3.638125 8.873125 -4.40125 9.05875 -5.1875 9.25 C-6.09741047 6.27211118 -6.44710381 4.81502006 -5.125 1.9375 C-3.1875 0.25 -3.1875 0.25 0 0 Z " fill="#6DB4E8" transform="translate(121.1875,61.75)"/>
<path d="M0 0 C4.39683488 1.19913678 7.09840934 2.4288115 10 6 C10 6.66 10 7.32 10 8 C10.61875 8.061875 11.2375 8.12375 11.875 8.1875 C14 9 14 9 15.25 11.5625 C15.4975 12.366875 15.745 13.17125 16 14 C11.89610729 12.33652892 8.93707246 9.41489664 5.75 6.4375 C5.19570312 5.93025391 4.64140625 5.42300781 4.0703125 4.90039062 C2.69075248 3.6244675 1.34240103 2.31496202 0 1 C0 0.67 0 0.34 0 0 Z " fill="#99B7E1" transform="translate(206,120)"/>
<path d="M0 0 C0.33 0.99 0.66 1.98 1 3 C-2.18616144 6.459261 -4.61555044 8.38467648 -9 10 C-10.77277259 11.52007842 -10.77277259 11.52007842 -12 13 C-12.66 12.67 -13.32 12.34 -14 12 C-12.23139162 10.37251997 -10.46024324 8.74796543 -8.6875 7.125 C-8.18798828 6.66480469 -7.68847656 6.20460938 -7.17382812 5.73046875 C-4.85790957 3.61393392 -2.61710426 1.74473617 0 0 Z " fill="#8FB2E3" transform="translate(225,62)"/>
<path d="M0 0 C2.8125 0.375 2.8125 0.375 3.8125 1.375 C3.85313832 3.04117115 3.855221 4.70888095 3.8125 6.375 C3.1525 6.375 2.4925 6.375 1.8125 6.375 C1.8125 5.055 1.8125 3.735 1.8125 2.375 C1.1525 2.375 0.4925 2.375 -0.1875 2.375 C-0.1875 3.035 -0.1875 3.695 -0.1875 4.375 C-2.4975 4.705 -4.8075 5.035 -7.1875 5.375 C-3.99960191 0.4705414 -3.99960191 0.4705414 0 0 Z " fill="#4E7BCE" transform="translate(237.1875,54.625)"/>
<path d="M0 0 C-3.40712181 3.97497544 -7.32760855 5.86793788 -12 8 C-11.25 5.5625 -11.25 5.5625 -10 3 C-7.875 2.1875 -7.875 2.1875 -6 2 C-6 1.34 -6 0.68 -6 0 C-3.50907189 -1.24546405 -2.58919267 -0.7767578 0 0 Z " fill="#6393DA" transform="translate(241,62)"/>
<path d="M0 0 C3.76687864 1.88343932 4.79421646 2.69132469 7 6 C4.525 5.01 4.525 5.01 2 4 C1.67 8.29 1.34 12.58 1 17 C0.67 17 0.34 17 0 17 C0 11.39 0 5.78 0 0 Z " fill="#C3EAFD" transform="translate(199,114)"/>
<path d="M0 0 C2.96404505 2.80804268 5.44499019 5.18315774 7 9 C5.02 8.34 3.04 7.68 1 7 C1 6.34 1 5.68 1 5 C0.01 4.67 -0.98 4.34 -2 4 C-1.34 2.68 -0.68 1.36 0 0 Z " fill="#82BCE8" transform="translate(234,66)"/>
<path d="M0 0 C0 3.6026412 -1.17803615 4.96901452 -3.48828125 7.63671875 C-5.72852527 9.65699049 -8.10395457 10.32650106 -11 11 C-7.6381774 6.74828319 -4.25171681 3.3618226 0 0 Z " fill="#4E7DCD" transform="translate(217,70)"/>
<path d="M0 0 C0.598125 0.20625 1.19625 0.4125 1.8125 0.625 C0.4925 2.275 -0.8275 3.925 -2.1875 5.625 C-3.1775 5.295 -4.1675 4.965 -5.1875 4.625 C-5.1875 3.635 -5.1875 2.645 -5.1875 1.625 C-2.1875 -0.375 -2.1875 -0.375 0 0 Z " fill="#3D7FF8" transform="translate(205.1875,86.375)"/>
<path d="M0 0 C2.4375 0.75 2.4375 0.75 5 2 C5.8125 4.125 5.8125 4.125 6 6 C3.03 5.505 3.03 5.505 0 5 C0 3.35 0 1.7 0 0 Z " fill="#87BFE2" transform="translate(192,61)"/>
<path d="M0 0 C2.125 0.375 2.125 0.375 4 1 C4 1.99 4 2.98 4 4 C2.35 4.66 0.7 5.32 -1 6 C-1.625 4.125 -1.625 4.125 -2 2 C-1.34 1.34 -0.68 0.68 0 0 Z " fill="#437DEE" transform="translate(233,136)"/>
<path d="M0 0 C2.97 0.495 2.97 0.495 6 1 C4.68 2.65 3.36 4.3 2 6 C0.68 5.67 -0.64 5.34 -2 5 C-1.34 5 -0.68 5 0 5 C0 3.35 0 1.7 0 0 Z " fill="#72B5E2" transform="translate(192,133)"/>
<path d="M0 0 C0.99 0.33 1.98 0.66 3 1 C2.6875 2.875 2.6875 2.875 2 5 C1.01 5.66 0.02 6.32 -1 7 C-2 6 -2 6 -2.0625 3.4375 C-2.041875 2.633125 -2.02125 1.82875 -2 1 C-1.34 0.67 -0.68 0.34 0 0 Z " fill="#6FB7EB" transform="translate(239,121)"/>
<path d="M0 0 C1.98 0.66 3.96 1.32 6 2 C6.33 3.65 6.66 5.3 7 7 C5.83040013 6.02433888 4.66438823 5.044375 3.5 4.0625 C2.8503125 3.51722656 2.200625 2.97195312 1.53125 2.41015625 C1.0259375 1.94480469 0.520625 1.47945313 0 1 C0 0.67 0 0.34 0 0 Z " fill="#5780D1" transform="translate(200,113)"/>
<path d="M0 0 C3.79588866 0.54226981 5.47211993 2.20127563 8 5 C5 5 5 5 2.3125 2.5 C1.549375 1.675 0.78625 0.85 0 0 Z " fill="#3884E8" transform="translate(210,114)"/>
</svg>
